<?xml version="1.0" encoding="UTF-8"?>
<svg id="Layer_2" data-name="Layer 2" xmlns="http://www.w3.org/2000/svg" viewBox="0 0 134.12 25.06">
  <defs>
    <style>
      .cls-1 {
        fill: #58a0db;
      }

      .cls-2 {
        fill: #223347;
      }
    </style>
  </defs>
  <g id="Layer_1-2" data-name="Layer 1">
    <g>
      <g>
        <path class="cls-2" d="M12.75,11.22c-.56,0-1.02-.46-1.02-1.02v-2.83h1.41v-2.13c0-.56-.46-1.02-1.02-1.02H2.98c-.56,0-1.02.46-1.02,1.02v2.13h1.32v2.05c0,.56.46,1.02,1.02,1.02h1.5c.56,0,1.02-.46,1.02-1.02v-2.05h1.39v2.83c0,.56-.46,1.02-1.02,1.02H1.02c-.56,0-1.02.46-1.02,1.02v1.12c0,.56.46,1.02,1.02,1.02h11.74c.56,0,1.02-.46,1.02-1.02v-1.12c0-.56-.46-1.02-1.02-1.02Z"/>
        <path class="cls-2" d="M37.77,20.19h-5.54c-.56,0-1.02-.46-1.02-1.02v-2.28c0-.56-.46-1.02-1.02-1.02h-1.68c-.56,0-1.02.46-1.02,1.02v4.7c0,.52.18.94.54,1.26.36.32.81.48,1.36.48h8.37c.56,0,1.02-.46,1.02-1.02v-1.12c0-.56-.46-1.02-1.02-1.02Z"/>
        <path class="cls-2" d="M33.91,13.36v-1.12c0-.56-.46-1.02-1.02-1.02h-5.42c-.25,0-.44-.06-.55-.19-.11-.13-.17-.33-.17-.59v-.87h4.66c.56,0,1.02-.46,1.02-1.02v-4.5c0-.49-.19-.88-.56-1.15s-.81-.41-1.32-.41h-6.4c-.56,0-1.02.46-1.02,1.02v.89c0,.56.46,1.02,1.02,1.02h4.66v1.52h-4.66c-.56,0-1.02.46-1.02,1.02v2.6c0,.3.07.52.2.67h-3.02c-.71,0-1.23-.2-1.54-.6-.31-.4-.47-1.06-.47-1.97v-1.27h2.29c.56,0,1.02-.46,1.02-1.02v-1.14c0-.56-.46-1.02-1.02-1.02h-1.27c-.56,0-1.02-.46-1.02-1.02V1.02c0-.56-.46-1.02-1.02-1.02h-1.68c-.56,0-1.02.46-1.02,1.02v8.3c0,1.71.48,2.98,1.44,3.81.96.83,2.32,1.24,4.08,1.24h12.77c.56,0,1.02-.46,1.02-1.02Z"/>
        <path class="cls-2" d="M52.99,14.22c.61.07,1.15-.4,1.15-1.02v-1.11c0-.49-.35-.92-.83-.99-.59-.09-1.14-.28-1.64-.58-.72-.43-1.28-1.01-1.69-1.77-.4-.75-.6-1.61-.6-2.58v-1.46c0-.56-.46-1.02-1.02-1.02h-1.72c-.56,0-1.02.46-1.02,1.02v1.46c0,.97-.19,1.84-.58,2.6-.39.77-.92,1.37-1.6,1.8-.46.29-.95.48-1.5.58-.07.01-.13.04-.19.07h-1.32c-.72,0-1.23-.2-1.54-.6-.31-.4-.47-1.06-.47-1.97v-1.27h2.29c.56,0,1.02-.46,1.02-1.02v-1.14c0-.56-.46-1.02-1.02-1.02h-1.27c-.56,0-1.02-.46-1.02-1.02V1.02c0-.56-.46-1.02-1.02-1.02h-1.68c-.56,0-1.02.46-1.02,1.02v8.3c0,1.71.48,2.98,1.44,3.81.96.83,2.32,1.24,4.08,1.24h2.05v-.08s0,0,0,0c.93-.12,1.81-.4,2.65-.82.74-.37,1.36-.82,1.84-1.34.42-.45,1.08-.46,1.52-.03.51.5,1.14.94,1.91,1.3.88.42,1.81.69,2.78.8Z"/>
        <path class="cls-2" d="M58.42,15.87h-8.63c-.56,0-1.02.46-1.02,1.02v6.43c0,.52.18.94.55,1.26s.82.48,1.35.48h7.74c.56,0,1.02-.46,1.02-1.02v-3.22c0-.56-.46-1.02-1.02-1.02h-1.59c-.56,0-1.02.46-1.02,1.02v.07c0,.56-.46,1.02-1.02,1.02h-1.38c-.56,0-1.02-.46-1.02-1.02v-.85c0-.56.46-1.02,1.02-1.02h5.01c.56,0,1.02-.46,1.02-1.02v-1.12c0-.56-.46-1.02-1.02-1.02Z"/>
        <path class="cls-2" d="M99.72,11.83c.48-.8.72-1.71.72-2.73s-.24-1.92-.72-2.72-1.14-1.42-1.98-1.87c-.84-.45-1.79-.67-2.85-.67s-2.03.22-2.87.67c-.84.45-1.5,1.07-1.98,1.87s-.72,1.7-.72,2.72c0,.4.09.85.27,1.34h3.75c-.09-.19-.16-.41-.22-.64-.06-.23-.09-.43-.09-.59,0-.57.17-1.04.53-1.41s.79-.56,1.33-.56.98.19,1.32.56c.34.37.51.84.51,1.41s-.17,1.06-.51,1.44c-.34.38-.78.57-1.32.57h-34.11c-.49,0-.84-.2-1.04-.59-.2-.39-.3-1.05-.3-1.98V1.02c0-.56-.46-1.02-1.02-1.02h-1.68c-.56,0-1.02.46-1.02,1.02v2.35c0,.56-.46,1.02-1.02,1.02h-1.56c-.56,0-1.02.46-1.02,1.02v1.14c0,.56.46,1.02,1.02,1.02h1.56c.56,0,1.02.46,1.02,1.02v.75c0,1.7.42,2.97,1.27,3.8.85.83,2.04,1.25,3.58,1.25h34.31c1.06,0,2.01-.22,2.85-.67.84-.45,1.5-1.07,1.98-1.88Z"/>
        <path class="cls-2" d="M108.48,19.11h-3.67c.04.12.09.28.13.48s.07.4.07.59c0,.52-.16.95-.48,1.3s-.72.51-1.2.51-.89-.17-1.21-.51c-.31-.34-.47-.77-.47-1.3s.16-.97.47-1.31c.31-.34.71-.5,1.21-.5h3.92c.56,0,1.02-.46,1.02-1.02v-.98c0-.56-.46-1.02-1.02-1.02h-3.92c-1.64,0-2.94.44-3.9,1.31-.96.87-1.44,2.05-1.44,3.52,0,.92.23,1.75.68,2.48.45.73,1.09,1.3,1.9,1.71.81.41,1.73.61,2.76.61s1.95-.21,2.76-.61c.81-.41,1.45-.98,1.9-1.71.45-.73.68-1.56.68-2.48,0-.18-.02-.37-.06-.58-.04-.21-.09-.37-.14-.49Z"/>
        <path class="cls-2" d="M127.45,11.22h-5.36c-.56,0-1.02-.46-1.02-1.02v-.31c0-.56.46-1.02,1.02-1.02h2.01c.56,0,1.02-.46,1.02-1.02v-1.12c0-.56-.46-1.02-1.02-1.02h-5.99c-.56,0-1.02-.46-1.02-1.02v-.51c0-.56.46-1.02,1.02-1.02h5.99c.56,0,1.02-.46,1.02-1.02v-1.12c0-.56-.46-1.02-1.02-1.02h-9.7c-.56,0-1.02.46-1.02,1.02v6.09c0,.52.17.94.51,1.26.34.32.8.48,1.36.48h1.08c.56,0,1.02.46,1.02,1.02v.31c0,.56-.46,1.02-1.02,1.02h-6.72c-.49,0-.84-.2-1.04-.59-.2-.39-.3-1.05-.3-1.98V1.02c0-.56-.46-1.02-1.02-1.02h-1.68c-.56,0-1.02.46-1.02,1.02v2.17c0,.56-.46,1.02-1.02,1.02h-1.23c-.56,0-1.02.46-1.02,1.02v.92c0,.56.46,1.02,1.02,1.02h2.25v1.48h-2.25c-.56,0-1.02.46-1.02,1.02v.92c0,.56.46,1.02,1.02,1.02h1.88c.38,0,.76.19.93.53.33.67.81,1.2,1.42,1.57.77.46,1.72.69,2.87.69h18.03c.56,0,1.02-.46,1.02-1.02v-1.12c0-.56-.46-1.02-1.02-1.02Z"/>
      </g>
      <g>
        <path class="cls-1" d="M63.62,9.76h21.99c.55,0,.76-.71.31-1.02-13.64-9.53-20.74-2.51-22.74.13-.28.37-.02.89.44.89Z"/>
        <circle class="cls-1" cx="132.38" cy="13.16" r="1.74"/>
      </g>
    </g>
  </g>
</svg>